<?xml version="1.0" encoding="UTF-8"?>
<svg xmlns="http://www.w3.org/2000/svg" width="100" height="100" viewBox="0 0 100 100" fill="none">
  <path d="M 1 9 L 0 11 L 0 90 L 1 92 L 3 93 L 86 93 L 88 92 L 90 87 L 90 82 L 91 81 L 91 77 L 92 76 L 92 72 L 93 71 L 93 66 L 94 65 L 94 61 L 95 60 L 95 55 L 96 54 L 96 50 L 97 49 L 97 45 L 98 44 L 98 39 L 99 38 L 99 31 L 98 29 L 93 27 L 93 19 L 92 17 L 90 16 L 36 16 L 30 8 L 3 8 Z M 13 34 L 16 31 L 93 31 L 95 33 L 95 39 L 94 40 L 94 44 L 93 45 L 93 49 L 92 50 L 92 55 L 91 56 L 91 60 L 90 61 L 90 66 L 89 67 L 89 71 L 88 72 L 88 76 L 87 77 L 86 87 L 83 90 L 6 90 L 4 88 L 4 82 L 5 81 L 5 77 L 6 76 L 6 72 L 7 71 L 7 66 L 8 65 L 8 61 L 9 60 L 9 55 L 10 54 L 10 50 L 11 49 L 11 45 L 12 44 Z M 3 60 L 3 14 L 6 11 L 27 11 L 33 19 L 87 19 L 90 22 L 90 27 L 89 28 L 13 28 L 11 29 L 9 34 L 9 39 L 8 40 L 8 44 L 7 45 L 7 49 L 6 50 L 5 60 L 4 61 Z" fill="#000000" fill-rule="evenodd"/>
</svg>
