<svg xmlns="http://www.w3.org/2000/svg" viewBox="0 0 64 64" width="64" height="64" role="img" aria-label="Colar">
  <g fill="none" stroke="#1f1f1f" stroke-width="4" stroke-linecap="round" stroke-linejoin="round">
    <path d="M23 14h18"/>
    <path d="M25 10h14a4 4 0 0 1 4 4v4H21v-4a4 4 0 0 1 4-4z"/>
    <path d="M17 18h-3a5 5 0 0 0-5 5v31a5 5 0 0 0 5 5h28a5 5 0 0 0 5-5v-3"/>
    <path d="M47 18h3a5 5 0 0 1 5 5v12"/>
    <path d="M25 30h18l10 10v14H25z"/>
    <path d="M43 30v10h10"/>
  </g>
</svg>
