<svg xmlns="http://www.w3.org/2000/svg" width="32" height="32" viewBox="0 0 32 32" fill="none">
  <path d="M18.15 3.5H13.85L13.25 6.55C12.35 6.82 11.5 7.18 10.72 7.65L8.12 5.92L5.08 8.96L6.82 11.55C6.35 12.35 5.98 13.2 5.72 14.1L2.65 14.7V19L5.72 19.6C5.98 20.5 6.35 21.35 6.82 22.15L5.08 24.74L8.12 27.78L10.72 26.05C11.5 26.52 12.35 26.88 13.25 27.15L13.85 30.2H18.15L18.75 27.15C19.65 26.88 20.5 26.52 21.28 26.05L23.88 27.78L26.92 24.74L25.18 22.15C25.65 21.35 26.02 20.5 26.28 19.6L29.35 19V14.7L26.28 14.1C26.02 13.2 25.65 12.35 25.18 11.55L26.92 8.96L23.88 5.92L21.28 7.65C20.5 7.18 19.65 6.82 18.75 6.55L18.15 3.5Z" stroke="#1F1F1F" stroke-width="2.4" stroke-linejoin="round"/>
  <circle cx="16" cy="16.85" r="4.9" stroke="#1F1F1F" stroke-width="2.4"/>
</svg>
