<?xml version="1.0" standalone="no"?>
<!DOCTYPE svg PUBLIC "-//W3C//DTD SVG 20010904//EN"
 "http://www.w3.org/TR/2001/REC-SVG-20010904/DTD/svg10.dtd">
<svg version="1.0" xmlns="http://www.w3.org/2000/svg"
 width="491.000000pt" height="444.000000pt" viewBox="0 0 491.000000 444.000000"
 preserveAspectRatio="xMidYMid meet">

<g transform="translate(0.000000,444.000000) scale(0.100000,-0.100000)"
fill="#000000" stroke="none">
<path d="M2305 4153 c-415 -32 -787 -183 -1100 -445 -601 -503 -835 -1340
-580 -2079 197 -570 639 -1006 1215 -1198 176 -59 314 -82 527 -88 202 -6 315
3 478 38 270 58 567 200 785 376 89 72 257 243 321 328 169 221 296 501 355
780 32 149 44 455 25 612 -109 894 -829 1590 -1731 1672 -109 10 -204 12 -295
4z m396 -59 c601 -82 1131 -466 1405 -1019 144 -291 202 -565 191 -900 -12
-357 -114 -669 -318 -976 -109 -163 -323 -380 -479 -486 -354 -238 -711 -343
-1125 -330 -228 8 -395 39 -595 114 -578 216 -1012 704 -1159 1305 -44 180
-54 289 -48 511 4 153 11 217 31 313 155 733 727 1303 1454 1450 216 43 417
49 643 18z"/>
<path d="M1548 2997 c-164 -69 -299 -214 -542 -581 -91 -137 -108 -177 -74
-175 7 0 56 66 108 147 508 784 761 788 1262 22 300 -458 353 -537 417 -618
104 -131 217 -234 309 -279 70 -35 83 -38 162 -38 79 0 92 3 163 38 95 47 214
157 320 295 106 139 290 419 282 432 -15 25 -37 2 -118 -122 -244 -378 -410
-550 -574 -594 -56 -15 -74 -16 -121 -6 -172 36 -334 195 -574 562 -300 458
-353 537 -417 618 -99 126 -223 240 -305 281 -59 30 -79 35 -154 38 -74 3 -95
0 -144 -20z"/>
</g>
</svg>
