<?xml version="1.0" encoding="iso-8859-1"?>
<!-- Uploaded to: SVG Repo, www.svgrepo.com, Generator: SVG Repo Mixer Tools -->
<svg fill="#000000" height="800px" width="800px" version="1.1" id="Layer_1" xmlns="http://www.w3.org/2000/svg" xmlns:xlink="http://www.w3.org/1999/xlink" 
	 viewBox="0 0 512.853 512.853" xml:space="preserve">
<g transform="translate(1 1)">
	<g>
		<g>
			<path d="M227.267,232.813c-3.413-3.413-8.533-3.413-11.947,0s-3.413,8.533,0,11.947l12.8,12.8c1.707,1.707,3.413,2.56,5.973,2.56
				c1.707,0,4.267-0.853,5.973-2.56c3.413-3.413,3.413-8.533,0-11.947L227.267,232.813z"/>
			<path d="M477.293,486.253c-23.893,0-42.667-18.773-42.667-42.667c0-37.547-30.72-68.267-68.267-68.267
				c-5.803,0-11.442,0.738-16.83,2.117L269.08,280.6c-0.403-0.672-0.758-1.367-1.07-2.074
				c8.137-10.743,36.991-47.718,139.31-178.833c19.627-26.453,33.28-55.467,41.813-87.04l1.707-5.973l-9.387-6.827L376.6,37.4
				L238.678,202.272L99.267,35.693L39.533,1.56L34.413-1l-9.387,7.68l1.707,5.973c8.533,31.573,23.04,60.587,41.813,87.04
				l140.155,179.246c-0.305,0.72-0.681,1.28-1.062,1.661l-80.45,96.837c-5.389-1.379-11.027-2.117-16.83-2.117
				c-37.547,0-68.267,30.72-68.267,68.267c0,37.547,30.72,68.267,68.267,68.267c37.547,0,68.267-30.72,68.267-68.267
				c0-13.47-3.97-26.049-10.774-36.659l70.166-90.495l70.808,90.557c-6.779,10.596-10.734,23.153-10.734,36.596
				c0,37.547,30.72,68.267,68.267,68.267c26.041,0,48.787-14.783,60.289-36.366c10.51,16.786,29.147,27.833,50.644,27.833
				c4.267,0,8.533-3.413,8.533-8.533S482.413,486.253,477.293,486.253z M387.693,50.2l39.253-22.187
				c-7.68,22.187-18.773,42.667-32.427,61.44c-0.853,0.853-84.48,107.52-122.88,157.867c-0.001-0.007-0.003-0.014-0.005-0.021
				c-0.092-0.488-0.19-0.976-0.308-1.46c-0.102-0.432-0.22-0.855-0.345-1.274c-0.062-0.211-0.121-0.423-0.189-0.634
				c-0.099-0.302-0.207-0.597-0.317-0.893c-1.08-3.017-2.67-5.903-4.81-8.518l-15.963-19.073L387.693,50.2z M49.773,28.013
				l38.4,22.187l163.84,194.56c2.56,4.267,3.413,9.387,0.853,13.653c-5.973,10.24-5.12,23.04,2.56,32.427l77.653,93.013
				c-1.38,0.828-2.761,1.752-4.141,2.73c-2.637,1.741-5.145,3.661-7.512,5.74c-0.382,0.305-0.765,0.611-1.147,0.917L82.2,89.453
				C68.547,70.68,57.453,50.2,49.773,28.013z M110.36,494.787c-28.16,0-51.2-23.04-51.2-51.2c0-28.16,23.04-51.2,51.2-51.2
				c3.673,0,7.256,0.401,10.715,1.145l6.351,2.268c2.773,0.756,5.393,1.817,7.868,3.125c3.857,2.168,7.405,4.82,10.567,7.874
				c1.633,1.625,3.169,3.369,4.605,5.214l1.665,2.081c5.926,8.353,9.429,18.531,9.429,29.493
				C161.56,471.747,138.52,494.787,110.36,494.787z M227.267,302.787l-70.49,90.873c-3.87-3.602-8.156-6.756-12.774-9.393
				l75.458-91.567l5.887,7.528L227.267,302.787z M366.36,494.787c-28.16,0-51.2-23.04-51.2-51.2c0-10.962,3.503-21.14,9.429-29.493
				l1.664-2.08c5.973-7.68,13.653-12.8,23.04-16.213l6.351-2.268c3.459-0.744,7.042-1.145,10.715-1.145
				c28.16,0,51.2,23.04,51.2,51.2C417.56,471.747,394.52,494.787,366.36,494.787z"/>
		</g>
	</g>
</g>
</svg>