<?xml version="1.0" encoding="UTF-8" standalone="no"?> <svg width="512" height="512" viewBox="0 0 512 512" fill="none" xmlns="http://www.w3.org/2000/svg">
<path fill-rule="evenodd" clip-rule="evenodd" d="M376.066 93.2967C370.155 99.8649 370.687 109.981 377.255 115.893L426.263 160H160C89.3076 160 32 217.308 32 288C32 358.693 89.3076 416 160 416H368C376.837 416 384 408.837 384 400C384 391.164 376.837 384 368 384H160C106.981 384 64 341.019 64 288C64 234.981 106.981 192 160 192H426.263L377.255 236.107C370.687 242.019 370.155 252.135 376.066 258.704C381.977 265.272 392.094 265.804 398.662 259.893L472.055 193.839C482.648 184.305 482.648 167.695 472.055 158.161L469.52 160.978L472.055 158.161L398.662 92.1074C392.094 86.1961 381.977 86.7285 376.066 93.2967Z" fill="black"/>
</svg>
