<?xml version="1.0" encoding="iso-8859-1"?>
<!-- Uploaded to: SVG Repo, www.svgrepo.com, Generator: SVG Repo Mixer Tools -->
<svg fill="#000000" height="800px" width="800px" version="1.1" id="Layer_1" xmlns="http://www.w3.org/2000/svg" xmlns:xlink="http://www.w3.org/1999/xlink" 
	 viewBox="0 0 281.191 281.191" xml:space="preserve">
<g>
	<g>
		<g>
			<path d="M196.767,57.02h-12.88V5c0-2.761-2.239-5-5-5h-76.584c-2.761,0-5,2.239-5,5v52.02h-12.88c-2.761,0-5,2.239-5,5v171.008
				c0,26.557,21.605,48.163,48.163,48.163h26.019c26.557,0,48.163-21.605,48.163-48.163V62.02
				C201.767,59.259,199.528,57.02,196.767,57.02z M107.303,10h66.584v47.02h-66.584V10z M153.604,271.191h-26.019
				c-21.043,0-38.163-17.12-38.163-38.163V67.02c12.1,0,90.342,0,102.344,0v166.008h0.001
				C191.767,254.071,174.647,271.191,153.604,271.191z"/>
			<path d="M176.767,77.02h-72.344c-2.761,0-5,2.239-5,5v151.007c0,15.529,12.634,28.163,28.163,28.163h26.018
				c15.529,0,28.163-12.634,28.163-28.163V82.02C181.767,79.259,179.528,77.02,176.767,77.02z M171.767,233.027
				c0,10.015-8.148,18.163-18.163,18.163h-26.018c-10.015,0-18.163-8.148-18.163-18.163V87.02h62.344V233.027z"/>
			<path d="M126.783,17.843c-2.761,0-5,2.239-5,5v21.334c0,2.761,2.239,5,5,5c2.761,0,5-2.239,5-5V22.843
				C131.783,20.082,129.544,17.843,126.783,17.843z"/>
			<path d="M154.408,17.843c-2.761,0-5,2.239-5,5v21.334c0,2.761,2.239,5,5,5s5-2.239,5-5V22.843
				C159.408,20.082,157.169,17.843,154.408,17.843z"/>
		</g>
	</g>
</g>
</svg>