<?xml version="1.0" encoding="iso-8859-1"?>
<!-- Uploaded to: SVG Repo, www.svgrepo.com, Generator: SVG Repo Mixer Tools -->
<svg fill="#000000" height="800px" width="800px" version="1.1" id="Layer_1" xmlns="http://www.w3.org/2000/svg" xmlns:xlink="http://www.w3.org/1999/xlink" 
	 viewBox="0 0 512 512" xml:space="preserve">
<g>
	<g>
		<g>
			<path d="M351,381.342c5.522,0,10-4.478,10-10V333c0-5.522-4.478-10-10-10c-5.522,0-10,4.478-10,10v38.342
				C341,376.864,345.478,381.342,351,381.342z"/>
			<path d="M481.571,392.035L325.538,236.002L325.5,227v-45c0-5.522-4.478-10-10-10c-5.522,0-10.216,4.478-10.216,10v45v13.016
				v221.39c0.007,4.015,2.873,7.637,6.572,9.197c3.698,1.563,7.973,0.759,10.854-2.038l42.727-41.478l28.387,69.988
				c3.678,9.066,12.375,14.925,22.158,14.925c3.085,0,6.106-0.591,8.98-1.757c12.216-4.954,18.123-18.923,13.168-31.139
				l-28.396-70.01l64.764,0.012c0.001,0,0.001,0,0.002,0c4.044,0,7.69-2.437,9.238-6.172
				C485.287,399.197,484.431,394.895,481.571,392.035z M394.887,389.092c-0.001,0-0.001,0-0.002,0c-3.326,0-6.436,1.654-8.294,4.413
				c-1.858,2.759-2.224,6.263-0.973,9.346l33.978,83.771c0.529,1.305,0.213,2.433-0.022,2.989c-0.235,0.556-0.825,1.569-2.13,2.099
				c-0.475,0.192-0.967,0.29-1.463,0.29c-1.215,0-2.894-0.64-3.625-2.442l-33.967-83.746c-1.25-3.082-3.951-5.342-7.207-6.026
				c-0.685-0.145-1.374-0.215-2.06-0.215c-2.574,0-5.08,0.995-6.966,2.825l-36.45,35.386l-0.275-173.601l124.922,124.921
				L394.887,389.092z"/>
			<path d="M182.5,10c0-5.522-4.478-10-10-10h-45c-5.522,0-10,4.478-10,10s4.478,10,10,10h45C178.022,20,182.5,15.522,182.5,10z"/>
			<path d="M107.5,234h-45c-5.522,0-10,4.478-10,10c0,5.522,4.478,10,10,10h45c5.522,0,10-4.478,10-10
				C117.5,238.478,113.022,234,107.5,234z"/>
			<path d="M92.5,10c0-5.522-4.478-10-10-10h-45c-5.522,0-10,4.478-10,10v34c0,5.522,4.478,10,10,10s10-4.478,10-10V20h35
				C88.022,20,92.5,15.522,92.5,10z"/>
			<path d="M37.5,169c-5.522,0-10,4.478-10,10v45c0,5.522,4.478,10,10,10s10-4.478,10-10v-45C47.5,173.478,43.022,169,37.5,169z"/>
			<path d="M37.5,79c-5.522,0-10,4.478-10,10v45c0,5.522,4.478,10,10,10s10-4.478,10-10V89C47.5,83.478,43.022,79,37.5,79z"/>
			<path d="M287.5,234h-45c-5.522,0-10,4.478-10,10c0,5.522,4.478,10,10,10h45c5.522,0,10-4.478,10-10
				C297.5,238.478,293.022,234,287.5,234z"/>
			<path d="M197.5,234h-45c-5.522,0-10,4.478-10,10c0,5.522,4.478,10,10,10h45c5.522,0,10-4.478,10-10
				C207.5,238.478,203.022,234,197.5,234z"/>
			<path d="M305.5,47c0,5.522,4.478,10,10,10c5.522,0,10-4.478,10-10V10c0-5.522-4.478-10-10-10h-8c-5.522,0-10,4.478-10,10
				c0,4.838,3.436,8.873,8,9.8V47z"/>
			<path d="M315.5,82c-5.522,0-10,4.478-10,10v45c0,5.522,4.478,10,10,10c5.522,0,10-4.478,10-10V92
				C325.5,86.478,321.022,82,315.5,82z"/>
			<path d="M272.5,10c0-5.522-4.478-10-10-10h-45c-5.522,0-10,4.478-10,10s4.478,10,10,10h45C268.022,20,272.5,15.522,272.5,10z"/>
		</g>
	</g>
</g>
</svg>